<!--?xml version="1.0" standalone="no"?-->
  <svg
    id="sw-js-blob-svg"
    viewBox="0 0 100 100"
    xmlns="http://www.w3.org/2000/svg" 
    width="100%"
    height="100%"
  >
    <defs>
      <linearGradient id="sw-gradient" x1="0" x2="1" y1="1" y2="0">
        <stop id="stop1" stop-color="rgba(60, 210, 233, 1)" offset="0%"></stop>
        <stop
          id="stop2"
          stop-color="rgba(60, 210, 233, 1)"
          offset="100%"
        ></stop>
      </linearGradient>
    </defs>
    <path
      fill="url(#sw-gradient)"
      d="M16.9,-28.1C19.5,-27.8,17.4,-18.3,17.3,-12.1C17.2,-5.9,19,-3,21.6,1.5C24.2,5.9,27.5,11.9,25.2,13.9C22.8,15.9,14.9,13.9,9.8,17.9C4.6,21.9,2.3,31.9,-0.9,33.4C-4.1,35,-8.2,28.1,-9.8,22.1C-11.4,16,-10.4,10.8,-12.2,7.2C-13.9,3.7,-18.3,1.8,-21.6,-1.9C-24.9,-5.7,-27.2,-11.3,-24.5,-13.2C-21.8,-15,-14.1,-13,-9.2,-12C-4.3,-11,-2.1,-10.9,2.5,-15.3C7.2,-19.6,14.3,-28.4,16.9,-28.1Z"
      width="100%"
      height="100%"
      transform="translate(50 50)"
      stroke-width="0"
      style="transition: all 0.3s ease 0s"
      stroke="url(#sw-gradient)"
    ></path>
  </svg>